# xmcd CD database file
#
# Track frame offsets:
#	150
#	13740
#	33712
#	47885
#	64947
#	84461
#	100488
#	115154
#	131183
#	147311
#	164618
#	180024
#
# Disc length: 2704 seconds
#
# Revision: 0
# Processed by: cddbd v1.5.2PL0 Copyright (c) Steve Scherf et al.
# Submitted via: CDex 1.70beta2
#
DISCID=aa0a8e0c
DTITLE=Oscar Peterson - Date with Oscar
DYEAR=1900
DGENRE=Jazz
TTITLE0=That old black magic
TTITLE1=Come rain or come shine
TTITLE2=Between the devil and the deep blue sea
TTITLE3=I've got the world on a string
TTITLE4=As long as I live
TTITLE5=Over the rainbow
TTITLE6=Ac-cent-tchu-ate the positive
TTITLE7=Let's fall in love
TTITLE8=Stormy weather (keeps rainin' all the time)
TTITLE9=Blues in the night
TTITLE10=It's only a paper moon
TTITLE11=I gotta right to sing the blues
EXTD=
EXTT0=
EXTT1=
EXTT2=
EXTT3=
EXTT4=
EXTT5=
EXTT6=
EXTT7=
EXTT8=
EXTT9=
EXTT10=
EXTT11=
PLAYORDER=
